<?xml version="1.0" encoding="UTF-8" standalone="no"?>
<!-- Created with Inkscape (http://www.inkscape.org/) -->

<svg
   xmlns:dc="http://purl.org/dc/elements/1.1/"
   xmlns:cc="http://creativecommons.org/ns#"
   xmlns:rdf="http://www.w3.org/1999/02/22-rdf-syntax-ns#"
   xmlns:svg="http://www.w3.org/2000/svg"
   xmlns="http://www.w3.org/2000/svg"
   xmlns:sodipodi="http://sodipodi.sourceforge.net/DTD/sodipodi-0.dtd"
   xmlns:inkscape="http://www.inkscape.org/namespaces/inkscape"
   width="210mm"
   height="297mm"
   viewBox="0 0 210 297"
   version="1.1"
   id="svg8"
   inkscape:version="0.92.3 (2405546, 2018-03-11)"
   sodipodi:docname="design.svg">
  <defs
     id="defs2">
    <clipPath
       id="clipPath3729"
       clipPathUnits="userSpaceOnUse">
      <path
         style="clip-rule:evenodd"
         inkscape:connector-curvature="0"
         id="path3727"
         d="M 0,1.22e-4 H 960 V 540.00012 H 0 Z" />
    </clipPath>
    <clipPath
       id="clipPath4049"
       clipPathUnits="userSpaceOnUse">
      <path
         style="clip-rule:evenodd"
         inkscape:connector-curvature="0"
         id="path4047"
         d="M -5e-6,540 H 960 V 1.22e-4 L -6.8e-5,6.1e-5" />
    </clipPath>
    <clipPath
       id="clipPath4089"
       clipPathUnits="userSpaceOnUse">
      <path
         style="clip-rule:evenodd"
         inkscape:connector-curvature="0"
         id="path4087"
         d="M -2.2e-5,540 H 960 V 6.1e-5 H -4.3e-5" />
    </clipPath>
    <clipPath
       id="clipPath4101"
       clipPathUnits="userSpaceOnUse">
      <path
         style="clip-rule:evenodd"
         inkscape:connector-curvature="0"
         id="path4099"
         d="M -1.6e-5,540 H 960 V 0 H -3.4e-5" />
    </clipPath>
  </defs>
  <sodipodi:namedview
     id="base"
     pagecolor="#ffffff"
     bordercolor="#666666"
     borderopacity="1.0"
     inkscape:pageopacity="0.0"
     inkscape:pageshadow="2"
     inkscape:zoom="0.98994949"
     inkscape:cx="403.75417"
     inkscape:cy="675.73017"
     inkscape:document-units="mm"
     inkscape:current-layer="g3721"
     showgrid="false"
     inkscape:window-width="1920"
     inkscape:window-height="1027"
     inkscape:window-x="-8"
     inkscape:window-y="-8"
     inkscape:window-maximized="1" />
  <metadata
     id="metadata5">
    <rdf:RDF>
      <cc:Work
         rdf:about="">
        <dc:format>image/svg+xml</dc:format>
        <dc:type
           rdf:resource="http://purl.org/dc/dcmitype/StillImage" />
        <dc:title></dc:title>
      </cc:Work>
    </rdf:RDF>
  </metadata>
  <g
     inkscape:label="Layer 1"
     inkscape:groupmode="layer"
     id="layer1">
    <g
       transform="matrix(0.35277777,0,0,-0.35277777,55.184528,295.48813)"
       inkscape:label="design"
       id="g3721">
      <g
         id="g3735"
         transform="translate(-44.699251,35.607878)">
        <path
           inkscape:connector-curvature="0"
           id="path3737"
           style="fill:none;stroke:#000000;stroke-width:0.95999998;stroke-linecap:butt;stroke-linejoin:miter;stroke-miterlimit:10;stroke-dasharray:none;stroke-opacity:1"
           d="M 2.04,371.04 H 202.2 v 60 H 2.04 Z" />
      </g>
      <g
         id="g3739"
         transform="translate(-44.699251,35.607878)">
        <path
           inkscape:connector-curvature="0"
           id="path3741"
           style="fill:#ffffff;fill-opacity:1;fill-rule:evenodd;stroke:none"
           d="m 6.6,468.24 h 129.36 v 21.12 H 6.6 Z" />
      </g>
      <g
         id="g3743"
         transform="translate(-44.699251,35.607878)">
        <path
           inkscape:connector-curvature="0"
           id="path3745"
           style="fill:none;stroke:#000000;stroke-width:0.95999998;stroke-linecap:butt;stroke-linejoin:miter;stroke-miterlimit:10;stroke-dasharray:none;stroke-opacity:1"
           d="m 6.6,468.24 h 129.36 v 21.12 H 6.6 Z" />
      </g>
      <g
         id="g3747"
         transform="translate(-44.699251,35.607878)">
        <text
           id="text3751"
           style="font-variant:normal;font-weight:normal;font-size:9px;font-family:'Courier New';-inkscape-font-specification:CourierNewPSMT;writing-mode:lr-tb;fill:#000000;fill-opacity:1;fill-rule:nonzero;stroke:none"
           transform="matrix(1,0,0,-1,49.704,476.26)">
          <tspan
             id="tspan3749"
             sodipodi:role="line"
             y="0"
             x="0 5.4000001 10.8 16.200001 21.6 27 32.400002 37.682999">guestdrv</tspan>
        </text>
      </g>
      <g
         id="g3753"
         transform="translate(-44.699251,35.607878)">
        <path
           inkscape:connector-curvature="0"
           id="path3755"
           style="fill:none;stroke:#000000;stroke-width:0.95999998;stroke-linecap:butt;stroke-linejoin:miter;stroke-miterlimit:10;stroke-dasharray:none;stroke-opacity:1"
           d="M 6.96,507.72 H 81.6 v 20.76 H 6.96 Z" />
      </g>
      <g
         id="g3757"
         transform="translate(-44.699251,35.607878)">
        <text
           id="text3761"
           style="font-variant:normal;font-weight:normal;font-size:9px;font-family:'Courier New';-inkscape-font-specification:CourierNewPSMT;writing-mode:lr-tb;fill:#000000;fill-opacity:1;fill-rule:nonzero;stroke:none"
           transform="matrix(1,0,0,-1,14.616,515.57)">
          <tspan
             id="tspan3759"
             sodipodi:role="line"
             y="0"
             x="0 5.4000001 10.8 16.200001 21.6 27 32.400002 37.682999 43.083 48.483002 53.882999">application</tspan>
        </text>
      </g>
      <g
         id="g3763"
         transform="translate(-44.699251,35.607878)">
        <path
           inkscape:connector-curvature="0"
           id="path3765"
           style="fill:#ffffff;fill-opacity:1;fill-rule:evenodd;stroke:none"
           d="m 78.48,507.72 h 57.6 v 20.64 h -57.6 z" />
      </g>
      <g
         id="g3767"
         transform="translate(-44.699251,35.607878)">
        <path
           inkscape:connector-curvature="0"
           id="path3769"
           style="fill:none;stroke:#000000;stroke-width:0.95999998;stroke-linecap:butt;stroke-linejoin:miter;stroke-miterlimit:10;stroke-dasharray:none;stroke-opacity:1"
           d="m 78.48,507.72 h 57.6 v 20.64 h -57.6 z" />
      </g>
      <g
         id="g3771"
         transform="translate(-44.699251,35.607878)">
        <text
           id="text3775"
           style="font-variant:normal;font-weight:normal;font-size:9px;font-family:'Courier New';-inkscape-font-specification:CourierNewPSMT;writing-mode:lr-tb;fill:#000000;fill-opacity:1;fill-rule:nonzero;stroke:none"
           transform="matrix(1,0,0,-1,85.8,515.52)">
          <tspan
             id="tspan3773"
             sodipodi:role="line"
             y="0"
             x="0 5.4000001 10.8 16.200001 21.6 27 32.400002 37.682999">guestlib</tspan>
        </text>
      </g>
      <g
         id="g3777"
         transform="translate(-44.699251,35.607878)">
        <path
           inkscape:connector-curvature="0"
           id="path3779"
           style="fill:#e7e6e6;fill-opacity:1;fill-rule:evenodd;stroke:none"
           d="m 6.6,446.64 h 129.36 v 21.24 H 6.6 Z" />
      </g>
      <g
         id="g3781"
         transform="translate(-44.699251,35.607878)">
        <path
           inkscape:connector-curvature="0"
           id="path3783"
           style="fill:none;stroke:#000000;stroke-width:0.95999998;stroke-linecap:butt;stroke-linejoin:miter;stroke-miterlimit:10;stroke-dasharray:none;stroke-opacity:1"
           d="m 6.6,446.64 h 129.36 v 21.24 H 6.6 Z" />
      </g>
      <g
         id="g3785"
         transform="translate(-44.699251,35.607878)">
        <text
           id="text3789"
           style="font-variant:normal;font-weight:normal;font-size:9px;font-family:'Courier New';-inkscape-font-specification:CourierNewPSMT;writing-mode:lr-tb;fill:#000000;fill-opacity:1;fill-rule:nonzero;stroke:none"
           transform="matrix(1,0,0,-1,20.184,454.73)">
          <tspan
             id="tspan3787"
             sodipodi:role="line"
             y="0"
             x="0 5.4000001 10.8 16.200001 21.6 27 32.400002 37.682999 43.083 48.483002 53.882999 59.166">vAccelerator</tspan>
        </text>
      </g>
      <g
         id="g3791"
         transform="translate(-44.699251,35.607878)">
        <text
           id="text3795"
           style="font-variant:normal;font-weight:normal;font-size:9px;font-family:'Courier New';-inkscape-font-specification:CourierNewPSMT;writing-mode:lr-tb;fill:#000000;fill-opacity:1;fill-rule:nonzero;stroke:none"
           transform="matrix(1,0,0,-1,90.144,454.73)">
          <tspan
             id="tspan3793"
             sodipodi:role="line"
             y="0"
             x="0 5.4000001 10.8 16.083 21.483 26.882999">(BARs)</tspan>
        </text>
      </g>
      <g
         id="g3797"
         transform="translate(-44.699251,35.607878)">
        <path
           inkscape:connector-curvature="0"
           id="path3799"
           style="fill:none;stroke:#afabab;stroke-width:0.72000003;stroke-linecap:butt;stroke-linejoin:miter;stroke-miterlimit:10;stroke-dasharray:2.88, 2.16;stroke-dashoffset:0;stroke-opacity:1"
           d="M 2.04,437.52 H 380.36" />
      </g>
      <g
         id="g3801"
         transform="translate(-44.699251,35.607878)">
        <text
           id="text3805"
           style="font-variant:normal;font-weight:normal;font-size:9.96000004px;font-family:'Courier New';-inkscape-font-specification:CourierNewPSMT;writing-mode:lr-tb;fill:#000000;fill-opacity:1;fill-rule:nonzero;stroke:none"
           transform="matrix(1,0,0,-1,176.14,411.43)">
          <tspan
             id="tspan3803"
             sodipodi:role="line"
             y="0"
             x="0 6 12">KVM</tspan>
        </text>
      </g>
      <g
         id="g3807"
         transform="translate(-44.699251,35.607878)">
        <path
           inkscape:connector-curvature="0"
           id="path3809"
           style="fill:#d9d9d9;fill-opacity:1;fill-rule:evenodd;stroke:none"
           d="m 7.08,377.04 h 97.08 v 20.4 H 7.08 Z" />
      </g>
      <g
         id="g3811"
         transform="translate(-44.699251,35.607878)">
        <path
           inkscape:connector-curvature="0"
           id="path3813"
           style="fill:none;stroke:#000000;stroke-width:0.95999998;stroke-linecap:butt;stroke-linejoin:miter;stroke-miterlimit:10;stroke-dasharray:none;stroke-opacity:1"
           d="m 7.08,377.04 h 97.08 v 20.4 H 7.08 Z" />
      </g>
      <g
         id="g3815"
         transform="translate(-44.699251,35.607878)">
        <text
           id="text3819"
           style="font-variant:normal;font-weight:normal;font-size:9px;font-family:'Courier New';-inkscape-font-specification:CourierNewPSMT;writing-mode:lr-tb;fill:#000000;fill-opacity:1;fill-rule:nonzero;stroke:none"
           transform="matrix(1,0,0,-1,15.288,389.98)">
          <tspan
             id="tspan3817"
             sodipodi:role="line"
             y="0"
             x="0 5.4000001 10.8 16.200001 21.6 27 32.400002 37.682999 43.083 48.483002 53.882999 59.166 64.566002 69.966003 75.365997">fair scheduler/</tspan>
        </text>
      </g>
      <g
         id="g3821"
         transform="translate(-44.699251,35.607878)">
        <text
           id="text3825"
           style="font-variant:normal;font-weight:normal;font-size:9px;font-family:'Courier New';-inkscape-font-specification:CourierNewPSMT;writing-mode:lr-tb;fill:#000000;fill-opacity:1;fill-rule:nonzero;stroke:none"
           transform="matrix(1,0,0,-1,23.448,380.02)">
          <tspan
             id="tspan3823"
             sodipodi:role="line"
             y="0"
             x="0 5.4000001 10.8 16.200001 21.6 27 32.400002 37.682999 43.083 48.483002 53.882999 59.166">rate limiter</tspan>
        </text>
      </g>
      <g
         id="g3827"
         transform="translate(-44.699251,35.607878)">
        <path
           inkscape:connector-curvature="0"
           id="path3829"
           style="fill:#ffffff;fill-opacity:1;fill-rule:evenodd;stroke:none"
           d="m 218.52,447.36 h 54.36 v 20.16 h -54.36 z" />
      </g>
      <g
         id="g3831"
         transform="translate(-44.699251,35.607878)">
        <path
           inkscape:connector-curvature="0"
           id="path3833"
           style="fill:none;stroke:#000000;stroke-width:0.95999998;stroke-linecap:butt;stroke-linejoin:miter;stroke-miterlimit:10;stroke-dasharray:none;stroke-opacity:1"
           d="m 218.52,447.36 h 54.36 v 20.16 h -54.36 z" />
      </g>
      <g
         id="g3835"
         transform="translate(-44.699251,35.607878)">
        <text
           id="text3839"
           style="font-variant:normal;font-weight:normal;font-size:9px;font-family:'Courier New';-inkscape-font-specification:CourierNewPSMT;writing-mode:lr-tb;fill:#000000;fill-opacity:1;fill-rule:nonzero;stroke:none"
           transform="matrix(1,0,0,-1,229.49,454.87)">
          <tspan
             id="tspan3837"
             sodipodi:role="line"
             y="0"
             x="0 5.4000001 10.8 16.200001 21.6 27">worker</tspan>
        </text>
      </g>
      <g
         id="g3841"
         transform="translate(-44.699251,35.607878)">
        <path
           inkscape:connector-curvature="0"
           id="path3843"
           style="fill:#000000;fill-opacity:1;fill-rule:nonzero;stroke:none"
           d="m 107.78,507.72 0.16,-17.42 h -1 l -0.16,17.42 z m 3.54,-11.64 -3.88,-6.77 -3.99,6.7 c -0.14,0.24 -0.06,0.55 0.18,0.69 0.23,0.14 0.54,0.06 0.68,-0.18 l 3.55,-5.96 -0.86,-0.01 3.45,6.03 c 0.13,0.24 0.44,0.32 0.68,0.18 0.24,-0.13 0.32,-0.44 0.19,-0.68 z" />
      </g>
      <g
         id="g3845"
         transform="translate(-44.699251,35.607878)">
        <text
           id="text3849"
           style="font-variant:normal;font-weight:normal;font-size:8.03999996px;font-family:'Courier New';-inkscape-font-specification:CourierNewPSMT;writing-mode:lr-tb;fill:#000000;fill-opacity:1;fill-rule:nonzero;stroke:none"
           transform="matrix(1,0,0,-1,48.24,496.54)">
          <tspan
             id="tspan3847"
             sodipodi:role="line"
             y="0"
             x="0 4.8239999 9.5997601 14.27904 19.103041">ioctl</tspan>
        </text>
      </g>
      <g
         id="g3851"
         transform="translate(-44.699251,35.607878)">
        <text
           id="text3855"
           style="font-variant:normal;font-weight:normal;font-size:8.03999996px;font-family:'Courier New';-inkscape-font-specification:CourierNewPSMT;writing-mode:lr-tb;fill:#000000;fill-opacity:1;fill-rule:nonzero;stroke:none"
           transform="matrix(1,0,0,-1,72,496.54)">
          <tspan
             id="tspan3853"
             y="0"
             x="0">/</tspan>
        </text>
      </g>
      <g
         id="g3857"
         transform="translate(-44.699251,35.607878)">
        <text
           id="text3861"
           style="font-variant:normal;font-weight:normal;font-size:8.03999996px;font-family:'Courier New';-inkscape-font-specification:CourierNewPSMT;writing-mode:lr-tb;fill:#000000;fill-opacity:1;fill-rule:nonzero;stroke:none"
           transform="matrix(1,0,0,-1,76.8,496.54)">
          <tspan
             id="tspan3859"
             sodipodi:role="line"
             y="0"
             x="0 4.8239999 9.4791603">mma</tspan>
        </text>
      </g>
      <g
         id="g3863"
         transform="translate(-44.699251,35.607878)">
        <text
           id="text3867"
           style="font-variant:normal;font-weight:normal;font-size:8.03999996px;font-family:'Courier New';-inkscape-font-specification:CourierNewPSMT;writing-mode:lr-tb;fill:#000000;fill-opacity:1;fill-rule:nonzero;stroke:none"
           transform="matrix(1,0,0,-1,91.08,496.54)">
          <tspan
             id="tspan3865"
             y="0"
             x="0">p</tspan>
        </text>
      </g>
      <g
         id="g3869"
         transform="translate(-44.699251,35.607878)">
        <path
           inkscape:connector-curvature="0"
           id="path3871"
           style="fill:#d9d9d9;fill-opacity:1;fill-rule:evenodd;stroke:none"
           d="m 150.84,486.24 h 70.2 v 20.88 h -70.2 z" />
      </g>
      <g
         id="g3873"
         transform="translate(-44.699251,35.607878)">
        <path
           inkscape:connector-curvature="0"
           id="path3875"
           style="fill:none;stroke:#000000;stroke-width:0.95999998;stroke-linecap:butt;stroke-linejoin:miter;stroke-miterlimit:10;stroke-dasharray:none;stroke-opacity:1"
           d="m 150.84,486.24 h 70.2 v 20.88 h -70.2 z" />
      </g>
      <g
         id="g3877"
         transform="translate(-44.699251,35.607878)">
        <text
           id="text3881"
           style="font-variant:normal;font-weight:normal;font-size:9px;font-family:'Courier New';-inkscape-font-specification:CourierNewPSMT;writing-mode:lr-tb;fill:#000000;fill-opacity:1;fill-rule:nonzero;stroke:none"
           transform="matrix(1,0,0,-1,159,493.66)">
          <tspan
             id="tspan3879"
             sodipodi:role="line"
             y="0"
             x="0 5.4000001 10.8 16.200001 21.6 27 32.400002 37.682999 43.083 48.483002">dispatcher</tspan>
        </text>
      </g>
      <g
         id="g3883"
         transform="translate(-44.699251,35.607878)">
        <path
           inkscape:connector-curvature="0"
           id="path3885"
           style="fill:#8497b0;fill-opacity:1;fill-rule:evenodd;stroke:none"
           d="m 7.08,402.12 h 155.64 v 20.64 H 7.08 Z" />
      </g>
      <g
         id="g3887"
         transform="translate(-44.699251,35.607878)">
        <path
           inkscape:connector-curvature="0"
           id="path3889"
           style="fill:none;stroke:#8497b0;stroke-width:0.47999999;stroke-linecap:butt;stroke-linejoin:miter;stroke-miterlimit:10;stroke-dasharray:none;stroke-opacity:1"
           d="m 7.08,402.12 h 155.64 v 20.64 H 7.08 Z" />
      </g>
      <g
         id="g3891"
         transform="translate(-44.699251,35.607878)">
        <text
           id="text3895"
           style="font-style:italic;font-variant:normal;font-weight:normal;font-size:9px;font-family:'Courier New';-inkscape-font-specification:CourierNewPS-ItalicMT;writing-mode:lr-tb;fill:#ffffff;fill-opacity:1;fill-rule:nonzero;stroke:none"
           transform="matrix(1,0,0,-1,31.152,409.9)">
          <tspan
             id="tspan3893"
             sodipodi:role="line"
             y="0"
             x="0 5.4000001 10.8 16.200001 21.6 27 32.400002 37.682999 43.083 48.483002 53.882999 59.166 64.566002 69.966003">shared memory</tspan>
        </text>
      </g>
      <g
         id="g3897"
         transform="translate(-44.699251,35.607878)">
        <text
           id="text3901"
           style="font-style:italic;font-variant:normal;font-weight:normal;font-size:9px;font-family:'Courier New';-inkscape-font-specification:CourierNewPS-ItalicMT;writing-mode:lr-tb;fill:#ffffff;fill-opacity:1;fill-rule:nonzero;stroke:none"
           transform="matrix(1,0,0,-1,106.51,409.9)">
          <tspan
             id="tspan3899"
             sodipodi:role="line"
             y="0"
             x="0 5.4000001 10.683 16.083 21.483 26.882999">buffer</tspan>
        </text>
      </g>
      <g
         id="g3903"
         transform="translate(-44.699251,35.607878)">
        <path
           inkscape:connector-curvature="0"
           id="path3905"
           style="fill:#d9d9d9;fill-opacity:1;fill-rule:evenodd;stroke:none"
           d="m 104.16,377.04 h 93.24 v 20.4 h -93.24 z" />
      </g>
      <g
         id="g3907"
         transform="translate(-44.699251,35.607878)">
        <path
           inkscape:connector-curvature="0"
           id="path3909"
           style="fill:none;stroke:#000000;stroke-width:0.95999998;stroke-linecap:butt;stroke-linejoin:miter;stroke-miterlimit:10;stroke-dasharray:none;stroke-opacity:1"
           d="m 104.16,377.04 h 93.24 v 20.4 h -93.24 z" />
      </g>
      <g
         id="g3911"
         transform="translate(-44.699251,35.607878)">
        <text
           id="text3915"
           style="font-variant:normal;font-weight:normal;font-size:9px;font-family:'Courier New';-inkscape-font-specification:CourierNewPSMT;writing-mode:lr-tb;fill:#000000;fill-opacity:1;fill-rule:nonzero;stroke:none"
           transform="matrix(1,0,0,-1,115.75,389.98)">
          <tspan
             id="tspan3913"
             sodipodi:role="line"
             y="0"
             x="0 5.4000001 10.8 16.200001 21.6 27 32.400002 37.682999 43.083 48.483002 53.882999 59.166 64.566002 69.966003">device memory</tspan>
        </text>
      </g>
      <g
         id="g3917"
         transform="translate(-44.699251,35.607878)">
        <text
           id="text3921"
           style="font-variant:normal;font-weight:normal;font-size:9px;font-family:'Courier New';-inkscape-font-specification:CourierNewPSMT;writing-mode:lr-tb;fill:#000000;fill-opacity:1;fill-rule:nonzero;stroke:none"
           transform="matrix(1,0,0,-1,131.95,380.02)">
          <tspan
             id="tspan3919"
             sodipodi:role="line"
             y="0"
             x="0 5.4000001 10.8 16.200001 21.6 27 32.400002">manager</tspan>
        </text>
      </g>
      <g
         id="g3923"
         transform="translate(-44.699251,35.607878)">
        <path
           inkscape:connector-curvature="0"
           id="path3925"
           style="fill:#000000;fill-opacity:1;fill-rule:nonzero;stroke:none"
           d="m 136.09,518.54 3,-0.05 -0.02,-1 -3,0.05 z m 4,-0.06 3,-0.05 -0.02,-1 -3,0.05 z m 4,-0.06 3,-0.05 -0.02,-1 -3,0.05 z m 4,-0.06 1.8,-0.03 -0.02,-1 -1.8,0.03 z m -3.9,3.49 6.68,-4.04 -6.8,-3.82 c -0.24,-0.14 -0.54,-0.05 -0.68,0.19 -0.13,0.24 -0.05,0.54 0.19,0.68 l 6.06,3.41 -0.02,-0.87 -5.94,3.59 c -0.24,0.15 -0.31,0.45 -0.17,0.69 0.14,0.24 0.45,0.31 0.68,0.17 z" />
      </g>
      <g
         id="g3927"
         transform="translate(-44.699251,35.607878)">
        <path
           inkscape:connector-curvature="0"
           id="path3929"
           style="fill:#e7e6e6;fill-opacity:1;fill-rule:evenodd;stroke:none"
           d="m 209.16,406.92 h 73.08 v 23.88 h -73.08 z" />
      </g>
      <g
         id="g3931"
         transform="translate(-44.699251,35.607878)">
        <path
           inkscape:connector-curvature="0"
           id="path3933"
           style="fill:none;stroke:#000000;stroke-width:0.95999998;stroke-linecap:butt;stroke-linejoin:miter;stroke-miterlimit:10;stroke-dasharray:none;stroke-opacity:1"
           d="m 209.16,406.92 h 73.08 v 23.88 h -73.08 z" />
      </g>
      <g
         id="g3935"
         transform="translate(-44.699251,35.607878)">
        <text
           id="text3939"
           style="font-variant:normal;font-weight:normal;font-size:9px;font-family:'Courier New';-inkscape-font-specification:CourierNewPSMT;writing-mode:lr-tb;fill:#000000;fill-opacity:1;fill-rule:nonzero;stroke:none"
           transform="matrix(1,0,0,-1,221.42,421.68)">
          <tspan
             id="tspan3937"
             sodipodi:role="line"
             y="0"
             x="0 5.4000001 10.8 16.200001 21.6 27 32.400002 37.682999 43.083 48.483002">HW vendor</tspan>
        </text>
      </g>
      <g
         id="g3941"
         transform="translate(-44.699251,35.607878)">
        <text
           id="text3945"
           style="font-variant:normal;font-weight:normal;font-size:9px;font-family:'Courier New';-inkscape-font-specification:CourierNewPSMT;writing-mode:lr-tb;fill:#000000;fill-opacity:1;fill-rule:nonzero;stroke:none"
           transform="matrix(1,0,0,-1,229.58,410.88)">
          <tspan
             id="tspan3943"
             sodipodi:role="line"
             y="0"
             x="0 5.4000001 10.8 16.200001 21.6 27">driver</tspan>
        </text>
      </g>
      <g
         id="g3947"
         transform="translate(-44.699251,35.607878)">
        <path
           inkscape:connector-curvature="0"
           id="path3949"
           style="fill:#000000;fill-opacity:1;fill-rule:nonzero;stroke:none"
           d="m 246.14,447.36 v -3 h -1 v 3 z m 0,-4 v -3 h -1 v 3 z m 0,-4 v -3 h -1 v 3 z m 0,-4 v -3 h -1 v 3 z m 3.43,2.11 -3.93,-6.74 -3.93,6.74 c -0.14,0.24 -0.06,0.55 0.18,0.69 0.24,0.14 0.54,0.06 0.68,-0.18 l 3.5,-6 h -0.86 l 3.5,6 c 0.14,0.24 0.44,0.32 0.68,0.18 0.24,-0.14 0.32,-0.45 0.18,-0.69 z" />
      </g>
      <g
         id="g3951"
         transform="translate(-44.699251,35.607878)">
        <path
           inkscape:connector-curvature="0"
           id="path3953"
           style="fill:#ffffff;fill-opacity:1;fill-rule:evenodd;stroke:none"
           d="m 285,470.88 h 88.68 V 484.2 H 285 Z" />
      </g>
      <g
         id="g3955"
         transform="translate(-44.699251,35.607878)">
        <path
           inkscape:connector-curvature="0"
           id="path3957"
           style="fill:none;stroke:#000000;stroke-width:0.95999998;stroke-linecap:butt;stroke-linejoin:miter;stroke-miterlimit:10;stroke-dasharray:none;stroke-opacity:1"
           d="m 285,470.88 h 88.68 V 484.2 H 285 Z" />
      </g>
      <g
         id="g3959"
         transform="translate(-44.699251,35.607878)">
        <text
           id="text3963"
           style="font-variant:normal;font-weight:normal;font-size:9px;font-family:'Courier New';-inkscape-font-specification:CourierNewPSMT;writing-mode:lr-tb;fill:#000000;fill-opacity:1;fill-rule:nonzero;stroke:none"
           transform="matrix(1,0,0,-1,313.22,475.01)">
          <tspan
             id="tspan3961"
             sodipodi:role="line"
             y="0"
             x="0 5.4000001 10.8 16.200001 21.6 27">worker</tspan>
        </text>
      </g>
      <g
         id="g3965"
         transform="translate(-44.699251,35.607878)">
        <path
           inkscape:connector-curvature="0"
           id="path3967"
           style="fill:#e7e6e6;fill-opacity:1;fill-rule:evenodd;stroke:none"
           d="m 285,447.48 h 88.68 v 20.76 H 285 Z" />
      </g>
      <g
         id="g3969"
         transform="translate(-44.699251,35.607878)">
        <path
           inkscape:connector-curvature="0"
           id="path3971"
           style="fill:none;stroke:#000000;stroke-width:0.95999998;stroke-linecap:butt;stroke-linejoin:miter;stroke-miterlimit:10;stroke-dasharray:none;stroke-opacity:1"
           d="m 285,447.48 h 88.68 v 20.76 H 285 Z" />
      </g>
      <g
         id="g3973"
         transform="translate(-44.699251,35.607878)">
        <text
           id="text3977"
           style="font-variant:normal;font-weight:normal;font-size:9px;font-family:'Courier New';-inkscape-font-specification:CourierNewPSMT;writing-mode:lr-tb;fill:#000000;fill-opacity:1;fill-rule:nonzero;stroke:none"
           transform="matrix(1,0,0,-1,305.06,460.61)">
          <tspan
             id="tspan3975"
             sodipodi:role="line"
             y="0"
             x="0 5.4000001 10.8 16.200001 21.6 27 32.400002 37.682999 43.083 48.483002">HW vendor</tspan>
        </text>
      </g>
      <g
         id="g3979"
         transform="translate(-44.699251,35.607878)">
        <text
           id="text3983"
           style="font-variant:normal;font-weight:normal;font-size:9px;font-family:'Courier New';-inkscape-font-specification:CourierNewPSMT;writing-mode:lr-tb;fill:#000000;fill-opacity:1;fill-rule:nonzero;stroke:none"
           transform="matrix(1,0,0,-1,313.22,450.65)">
          <tspan
             id="tspan3981"
             sodipodi:role="line"
             y="0"
             x="0 5.4000001 10.8 16.200001 21.6 27">driver</tspan>
        </text>
      </g>
      <g
         id="g3985"
         transform="translate(-44.699251,35.607878)">
        <path
           inkscape:connector-curvature="0"
           id="path3987"
           style="fill:#d9d9d9;fill-opacity:1;fill-rule:evenodd;stroke:none"
           d="m 217.92,486.36 h 54.96 v 20.88 h -54.96 z" />
      </g>
      <g
         id="g3989"
         transform="translate(-44.699251,35.607878)">
        <path
           inkscape:connector-curvature="0"
           id="path3991"
           style="fill:none;stroke:#000000;stroke-width:0.95999998;stroke-linecap:butt;stroke-linejoin:miter;stroke-miterlimit:10;stroke-dasharray:none;stroke-opacity:1"
           d="m 217.92,486.36 h 54.96 v 20.88 h -54.96 z" />
      </g>
      <g
         id="g3993"
         transform="translate(-44.699251,35.607878)">
        <text
           id="text3997"
           style="font-variant:normal;font-weight:normal;font-size:9px;font-family:'Courier New';-inkscape-font-specification:CourierNewPSMT;writing-mode:lr-tb;fill:#000000;fill-opacity:1;fill-rule:nonzero;stroke:none"
           transform="matrix(1,0,0,-1,226.61,493.75)">
          <tspan
             id="tspan3995"
             sodipodi:role="line"
             y="0"
             x="0 5.4000001 10.8 16.200001 21.6 27 32.400002">manager</tspan>
        </text>
      </g>
      <g
         id="g3999"
         transform="translate(-44.699251,35.607878)">
        <path
           inkscape:connector-curvature="0"
           id="path4001"
           style="fill:#d9d9d9;fill-opacity:1;fill-rule:evenodd;stroke:none"
           d="m 285,486.84 h 88.68 v 20.4 H 285 Z" />
      </g>
      <g
         id="g4003"
         transform="translate(-44.699251,35.607878)">
        <path
           inkscape:connector-curvature="0"
           id="path4005"
           style="fill:none;stroke:#000000;stroke-width:0.95999998;stroke-linecap:butt;stroke-linejoin:miter;stroke-miterlimit:10;stroke-dasharray:none;stroke-opacity:1"
           d="m 285,486.84 h 88.68 v 20.4 H 285 Z" />
      </g>
      <g
         id="g4007"
         transform="translate(-44.699251,35.607878)">
        <text
           id="text4011"
           style="font-variant:normal;font-weight:normal;font-size:9px;font-family:'Courier New';-inkscape-font-specification:CourierNewPSMT;writing-mode:lr-tb;fill:#000000;fill-opacity:1;fill-rule:nonzero;stroke:none"
           transform="matrix(1,0,0,-1,313.18,499.8)">
          <tspan
             id="tspan4009"
             sodipodi:role="line"
             y="0"
             x="0 5.4000001 10.8 16.200001 21.6 27 32.400002">worker</tspan>
        </text>
      </g>
      <g
         id="g4013"
         transform="translate(-44.699251,35.607878)">
        <text
           id="text4017"
           style="font-variant:normal;font-weight:normal;font-size:9px;font-family:'Courier New';-inkscape-font-specification:CourierNewPSMT;writing-mode:lr-tb;fill:#000000;fill-opacity:1;fill-rule:nonzero;stroke:none"
           transform="matrix(1,0,0,-1,310.54,489.84)">
          <tspan
             id="tspan4015"
             sodipodi:role="line"
             y="0"
             x="0 5.4000001 10.8 16.200001 21.6 27 32.400002">manager</tspan>
        </text>
      </g>
      <g
         id="g4019"
         transform="translate(-44.699251,35.607878)">
        <path
           inkscape:connector-curvature="0"
           id="path4021"
           style="fill:none;stroke:#000000;stroke-width:0.95999998;stroke-linecap:butt;stroke-linejoin:miter;stroke-miterlimit:10;stroke-dasharray:0.96, 0.96;stroke-dashoffset:0;stroke-opacity:1"
           d="m 279.36,442.08 h 99.72 v 86.4 h -99.72 z" />
      </g>
      <g
         id="g4023"
         transform="translate(-44.699251,35.607878)">
        <path
           inkscape:connector-curvature="0"
           id="path4025"
           style="fill:#d9d9d9;fill-opacity:1;fill-rule:evenodd;stroke:none"
           d="M 150.84,507.36 H 210 v 20.88 h -59.16 z" />
      </g>
      <g
         id="g4027"
         transform="translate(-44.699251,35.607878)">
        <path
           inkscape:connector-curvature="0"
           id="path4029"
           style="fill:none;stroke:#000000;stroke-width:0.95999998;stroke-linecap:butt;stroke-linejoin:miter;stroke-miterlimit:10;stroke-dasharray:none;stroke-opacity:1"
           d="M 150.84,507.36 H 210 v 20.88 h -59.16 z" />
      </g>
      <g
         id="g4031"
         transform="translate(-44.699251,35.607878)">
        <text
           id="text4035"
           style="font-variant:normal;font-weight:normal;font-size:9px;font-family:'Courier New';-inkscape-font-specification:CourierNewPSMT;writing-mode:lr-tb;fill:#000000;fill-opacity:1;fill-rule:nonzero;stroke:none"
           transform="matrix(1,0,0,-1,158.9,514.78)">
          <tspan
             id="tspan4033"
             sodipodi:role="line"
             y="0"
             x="0 5.4000001 10.8 16.200001 21.6 27 32.400002 37.682999">verifier</tspan>
        </text>
      </g>
      <g
         id="g4037"
         transform="translate(-44.699251,35.607878)">
        <text
           id="text4041"
           style="font-variant:normal;font-weight:normal;font-size:8.03999996px;font-family:'Courier New';-inkscape-font-specification:CourierNewPSMT;writing-mode:lr-tb;fill:#000000;fill-opacity:1;fill-rule:nonzero;stroke:none"
           transform="matrix(1,0,0,-1,141.79,532.06)">
          <tspan
             id="tspan4039"
             sodipodi:role="line"
             y="0"
             x="0 4.8239999 9.5997601 14.27904 19.103041">vsock</tspan>
        </text>
      </g>
      <g
         id="g4043"
         transform="translate(-44.699251,35.607878)">
        <g
           clip-path="url(#clipPath4049)"
           id="g4045">
          <g
             id="g4051">
            <path
               inkscape:connector-curvature="0"
               id="path4053"
               style="fill:#000000;fill-opacity:1;fill-rule:nonzero;stroke:none"
               d="m 199.09,485.6 0.83,-2.89 -0.96,-0.27 -0.83,2.88 z m 1.1,-3.85 0.17,-0.56 h -0.01 l 0.64,-2.17 v 0.01 l 0.05,-0.15 -0.96,-0.29 -0.05,0.15 -0.64,2.17 -0.16,0.57 z m 1.14,-3.82 0.31,-1.02 h -0.01 l 0.59,-1.84 -0.96,-0.3 -0.58,1.84 -0.31,1.02 z m 1.2,-3.8 0.42,-1.26 v 0.01 l 0.56,-1.58 -0.95,-0.33 -0.56,1.58 -0.42,1.26 z m 1.32,-3.76 0.45,-1.16 v 0 l 0.64,-1.63 -0.93,-0.36 -0.64,1.63 -0.45,1.17 z m 1.46,-3.72 0.34,-0.87 v 0 l 0.67,-1.64 -0.01,0.01 0.11,-0.26 -0.91,-0.4 -0.12,0.27 -0.67,1.65 -0.34,0.88 z m 1.52,-3.68 0.16,-0.38 -0.01,0.02 0.71,-1.42 -0.01,0.02 0.38,-0.66 -0.02,0.02 0.13,-0.19 -0.85,-0.54 -0.13,0.21 -0.38,0.68 -0.73,1.45 -0.17,0.39 z m 1.88,-3.4 0.12,-0.16 -0.03,0.03 0.42,-0.51 -0.02,0.02 0.44,-0.46 -0.04,0.04 0.47,-0.4 -0.05,0.04 0.51,-0.33 -0.07,0.03 0.26,-0.11 -0.42,-0.91 -0.29,0.13 -0.56,0.37 -0.51,0.43 -0.48,0.5 -0.44,0.54 -0.12,0.17 z m 2.84,-2.11 0.62,-0.12 h -0.04 l 0.66,-0.07 h -0.03 l 0.68,-0.03 h -0.03 l 1.01,0.03 0.03,-1 -1.03,-0.03 -0.72,0.03 -0.71,0.08 -0.64,0.13 z m 3.83,-0.12 0.71,0.07 -0.01,-0.01 0.63,0.09 h -0.01 l 0.59,0.08 0.53,0.07 0.24,0.03 0.13,-0.99 -0.24,-0.03 h 0.01 l -0.53,-0.07 -0.59,-0.09 -0.64,-0.08 -0.72,-0.07 z m -3.29,3.32 7.02,-3.41 -6.42,-4.43 c -0.22,-0.16 -0.53,-0.1 -0.69,0.12 -0.16,0.23 -0.1,0.54 0.13,0.7 l 5.71,3.95 0.07,-0.86 -6.25,3.03 c -0.25,0.12 -0.35,0.42 -0.23,0.67 0.12,0.25 0.42,0.35 0.66,0.23 z" />
          </g>
        </g>
      </g>
      <g
         id="g4055"
         transform="translate(-44.699251,35.607878)">
        <text
           id="text4059"
           style="font-variant:normal;font-weight:normal;font-size:8.03999996px;font-family:'Courier New';-inkscape-font-specification:CourierNewPSMT;writing-mode:lr-tb;fill:#000000;fill-opacity:1;fill-rule:nonzero;stroke:none"
           transform="matrix(1,0,0,-1,225.12,524.21)">
          <tspan
             id="tspan4057"
             sodipodi:role="line"
             y="0"
             x="0 4.8239999 9.5997601 14.27904 19.103041 23.7582">socket</tspan>
        </text>
      </g>
      <g
         id="g4061"
         transform="translate(-44.699251,35.607878)">
        <text
           id="text4065"
           style="font-variant:normal;font-weight:normal;font-size:6.96000004px;font-family:'Courier New';-inkscape-font-specification:CourierNewPSMT;writing-mode:lr-tb;fill:#000000;fill-opacity:1;fill-rule:nonzero;stroke:none"
           transform="matrix(1,0,0,-1,303.6,520.1)">
          <tspan
             id="tspan4063"
             sodipodi:role="line"
             y="0"
             x="0 4.1899199 8.3798399 12.69504 16.88496 21.074881 25.390079 29.58 33.895199 38.085121 42.400318 46.59024 50.780159 55.09536 59.285278">appliance VM /</tspan>
        </text>
      </g>
      <g
         id="g4067"
         transform="translate(-44.699251,35.607878)">
        <text
           id="text4071"
           style="font-variant:normal;font-weight:normal;font-size:6.96000004px;font-family:'Courier New';-inkscape-font-specification:CourierNewPSMT;writing-mode:lr-tb;fill:#000000;fill-opacity:1;fill-rule:nonzero;stroke:none"
           transform="matrix(1,0,0,-1,303.6,511.7)">
          <tspan
             id="tspan4069"
             sodipodi:role="line"
             y="0"
             x="0 4.1899199 8.3798399 12.69504 16.88496 21.074881 25.390079 29.58 33.895199 38.085121 42.400318 46.59024 50.780159">remote server</tspan>
        </text>
      </g>
      <g
         id="g4073"
         transform="translate(-44.699251,35.607878)">
        <text
           id="text4077"
           style="font-variant:normal;font-weight:normal;font-size:8.03999996px;font-family:'Courier New';-inkscape-font-specification:CourierNewPSMT;writing-mode:lr-tb;fill:#000000;fill-opacity:1;fill-rule:nonzero;stroke:none"
           transform="matrix(1,0,0,-1,204.7,472.1)">
          <tspan
             id="tspan4075"
             sodipodi:role="line"
             y="0"
             x="0 4.8239999 9.5997601 14.27904 19.103041 23.7582">socket</tspan>
        </text>
      </g>
      <g
         id="g4079"
         transform="translate(-44.699251,35.607878)">
        <path
           inkscape:connector-curvature="0"
           id="path4081"
           style="fill:none;stroke:#000000;stroke-width:0.95999998;stroke-linecap:butt;stroke-linejoin:miter;stroke-miterlimit:10;stroke-dasharray:0.96, 0.96;stroke-dashoffset:0;stroke-opacity:1"
           d="m 2.04,442.44 h 138.48 v 90.24 H 2.04 Z" />
      </g>
      <g
         id="g4083"
         transform="translate(-44.699251,35.607878)">
        <g
           clip-path="url(#clipPath4089)"
           id="g4085">
          <g
             id="g4091">
            <path
               inkscape:connector-curvature="0"
               id="path4093"
               style="fill:#000000;fill-opacity:1;fill-rule:nonzero;stroke:none"
               d="m 213.74,507.49 4.82,1.66 v 0 l 4.8,1.64 v 0 l 4.75,1.59 h -0.01 l 4.68,1.52 v 0 l 4.57,1.44 h -0.01 l 4.45,1.32 h -0.01 l 4.31,1.18 h -0.01 l 2.08,0.53 v 0 l 2.04,0.5 v 0 l 4.01,0.96 3.94,0.96 h -0.01 l 3.84,0.88 h -0.01 l 1.86,0.39 h -0.01 l 1.83,0.34 h -0.01 l 1.78,0.29 h -0.02 l 1.73,0.23 h -0.02 l 1.67,0.16 h -0.02 l 1.61,0.07 h -0.02 l 1.53,-0.01 h -0.03 l 1.47,-0.11 -0.03,0.01 1.39,-0.22 -0.05,0.01 1.32,-0.34 -0.04,0.01 0.63,-0.22 -0.04,0.01 0.62,-0.27 -0.04,0.01 0.6,-0.32 -0.03,0.02 0.58,-0.37 -0.04,0.03 1.11,-0.86 -0.03,0.03 1.05,-1 -0.03,0.03 0.99,-1.12 -0.03,0.03 0.93,-1.2 -0.01,0.02 0.88,-1.26 -0.02,0.02 0.81,-1.29 v 0.01 l 0.75,-1.3 v 0.01 l 0.7,-1.28 v 0 l 0.65,-1.23 v 0 l 0.6,-1.17 1.9,-3.43 0.88,0.49 -1.9,3.42 0.01,-0.01 -0.6,1.16 -0.66,1.24 -0.71,1.3 -0.76,1.31 -0.83,1.31 -0.89,1.28 -0.94,1.22 -1.02,1.15 -1.08,1.03 -1.15,0.89 -0.62,0.39 -0.62,0.34 -0.66,0.29 -0.67,0.24 -1.36,0.35 -1.44,0.23 -1.51,0.11 -1.57,0.01 -1.64,-0.08 -1.69,-0.16 -1.75,-0.23 -1.79,-0.3 -1.84,-0.34 -1.87,-0.39 -3.85,-0.89 -3.94,-0.96 h 0.01 l -4.02,-0.96 -2.04,-0.5 -2.09,-0.53 -4.32,-1.19 -4.45,-1.32 -4.58,-1.44 -4.69,-1.53 -4.75,-1.6 -4.8,-1.63 -4.83,-1.67 z m -1.14,3.31 -1.86,-3.82 3.82,-1.86 1.85,3.82 z m 75.67,-5.64 4.09,-1.12 1.13,4.09 -4.09,1.13 z" />
          </g>
        </g>
      </g>
      <g
         id="g4095"
         transform="translate(-44.699251,35.607878)">
        <g
           clip-path="url(#clipPath4101)"
           id="g4097">
          <g
             id="g4103">
            <path
               inkscape:connector-curvature="0"
               id="path4105"
               style="fill:#000000;fill-opacity:1;fill-rule:nonzero;stroke:none"
               d="m 198.59,486.32 2.92,-0.72 -0.24,-0.97 -2.92,0.72 z m 3.89,-0.96 1.75,-0.43 1.16,-0.28 -0.24,-0.97 -1.16,0.28 -1.75,0.43 z m 3.88,-0.94 2.92,-0.71 -0.24,-0.98 -2.92,0.71 z m 3.89,-0.95 2.91,-0.71 -0.23,-0.97 -2.92,0.71 z m 3.88,-0.94 1.26,-0.3 v 0 l 1.66,-0.4 -0.23,-0.97 -1.66,0.39 -1.26,0.31 z m 3.89,-0.93 2.82,-0.66 v 0 l 0.1,-0.03 -0.23,-0.97 -0.1,0.02 -2.82,0.67 z m 3.89,-0.91 2.93,-0.68 -0.23,-0.97 -2.92,0.67 z m 3.9,-0.91 0.37,-0.08 v 0 l 2.55,-0.58 -0.22,-0.98 -2.56,0.59 -0.36,0.08 z m 3.9,-0.88 1.64,-0.36 1.29,-0.28 -0.22,-0.98 -1.29,0.28 -1.64,0.37 z m 3.9,-0.86 0.26,-0.06 v 0 l 2.48,-0.52 h -0.01 l 0.2,-0.04 -0.2,-0.98 -0.2,0.04 -2.48,0.53 -0.26,0.05 z m 3.91,-0.83 1.24,-0.25 v 0 l 1.7,-0.34 -0.2,-0.98 -1.7,0.34 -1.24,0.26 z m 3.92,-0.79 2.94,-0.59 -0.2,-0.98 -2.94,0.59 z m 3.92,-0.78 0.4,-0.08 2.54,-0.52 -0.2,-0.98 -2.54,0.51 -0.4,0.09 z m 3.92,-0.8 1.05,-0.21 v 0 l 1.89,-0.37 -0.19,-0.98 -1.9,0.37 -1.05,0.21 z m 3.92,-0.77 1.56,-0.31 h -0.01 l 1.39,-0.26 -0.18,-0.98 -1.39,0.26 -1.56,0.3 z m 3.92,-0.75 1.88,-0.34 v 0.01 l 1.07,-0.19 -0.16,-0.98 -1.08,0.18 -1.88,0.34 z m 3.93,-0.68 1.96,-0.3 H 263 l 1.01,-0.14 -0.13,-0.99 -1.02,0.14 -1.96,0.3 z m 3.94,-0.57 1.74,-0.21 -0.02,0.01 1.25,-0.12 -0.09,-0.99 -1.25,0.11 -1.74,0.21 z m 3.95,-0.39 1.16,-0.07 h -0.02 l 1.56,-0.04 h -0.02 l 0.28,0.01 0.02,-1 -0.29,-0.01 -1.58,0.04 -1.16,0.07 z m 3.96,-0.08 h 0.16 -0.03 l 1.34,0.13 -0.04,-0.01 1.25,0.24 -0.05,-0.01 0.21,0.05 0.27,-0.96 -0.23,-0.06 -1.29,-0.24 -1.39,-0.13 -0.18,-0.01 z m 3.76,0.67 1.07,0.4 -0.04,-0.02 0.99,0.47 -0.03,-0.01 0.66,0.37 0.5,-0.87 -0.68,-0.38 -1.03,-0.49 -1.08,-0.41 z m 3.46,1.73 0.25,0.17 -0.02,-0.02 0.77,0.59 -0.02,-0.02 0.71,0.59 -0.02,-0.01 0.6,0.55 0.67,-0.74 -0.6,-0.56 -0.73,-0.6 -0.79,-0.6 -0.26,-0.18 z m 2.97,2.52 0.47,0.47 0.5,0.5 0.47,0.45 0.04,0.03 0.65,-0.76 -0.03,-0.02 0.02,0.02 -0.46,-0.44 0.01,0.01 -0.49,-0.49 v 0 l -0.47,-0.47 z m -5.15,0.59 7.73,1.1 -2.84,-7.27 c -0.1,-0.26 -0.39,-0.38 -0.65,-0.28 -0.26,0.1 -0.38,0.39 -0.28,0.65 l 2.53,6.46 0.53,-0.67 -6.87,-0.98 c -0.28,-0.04 -0.53,0.15 -0.57,0.42 -0.04,0.27 0.15,0.53 0.42,0.57 z" />
          </g>
        </g>
      </g>
      <g
         id="g4107"
         transform="translate(-44.699251,35.607878)">
        <path
           inkscape:connector-curvature="0"
           id="path4109"
           style="fill:#d9d9d9;fill-opacity:1;fill-rule:evenodd;stroke:none"
           d="m 218.16,486.12 h 54.96 V 507 h -54.96 z" />
      </g>
      <g
         id="g4111"
         transform="translate(-44.699251,35.607878)">
        <path
           inkscape:connector-curvature="0"
           id="path4113"
           style="fill:none;stroke:#000000;stroke-width:0.95999998;stroke-linecap:butt;stroke-linejoin:miter;stroke-miterlimit:10;stroke-dasharray:none;stroke-opacity:1"
           d="m 218.16,486.12 h 54.96 V 507 h -54.96 z" />
      </g>
      <g
         id="g4115"
         transform="translate(-44.699251,35.607878)">
        <text
           id="text4119"
           style="font-variant:normal;font-weight:normal;font-size:9px;font-family:'Courier New';-inkscape-font-specification:CourierNewPSMT;writing-mode:lr-tb;fill:#000000;fill-opacity:1;fill-rule:nonzero;stroke:none"
           transform="matrix(1,0,0,-1,226.9,493.56)">
          <tspan
             id="tspan4117"
             sodipodi:role="line"
             y="0"
             x="0 5.4000001 10.8 16.200001 21.6 27 32.400002">manager</tspan>
        </text>
      </g>
      <g
         id="g4121"
         transform="translate(-44.699251,35.607878)">
        <path
           inkscape:connector-curvature="0"
           id="path4123"
           style="fill:#000000;fill-opacity:1;fill-rule:nonzero;stroke:none"
           d="M 186.38,486.24 V 431 h -1 v 55.24 z m -3.5,0 3,3 3,-3 -3,-3 z m 6,-55.24 -3,-3 -3,3 3,3 z" />
      </g>
      <g
         id="g4125"
         transform="translate(-44.699251,35.607878)">
        <path
           inkscape:connector-curvature="0"
           id="path4127"
           style="fill:#000000;fill-opacity:1;fill-rule:nonzero;stroke:none"
           d="m 245.9,486.37 0.3,-18.88 -1,-0.02 -0.3,18.88 z m -3.5,-0.06 2.95,3.05 3.05,-2.95 -2.95,-3.05 z m 6.3,-18.78 -2.95,-3.05 -3.05,2.95 2.95,3.05 z" />
      </g>
    </g>
  </g>
</svg>
